/* XPM */
/* License: http://creativecommons.org/licenses/LGPL/2.1/	*/
/* Source:  Nuvola		*/
/* Source URL:  http://www.icon-king.com/projects/nuvola/		*/
static char *folder_blue[] = {
/* columns rows colors chars-per-pixel */
"32 32 256 2",
"   c #080807",
".  c #00010C",
"X  c #0A0A09",
"o  c #000413",
"O  c #00061A",
"+  c #010A1C",
"@  c #171718",
"#  c #131312",
"$  c #000A26",
"%  c #04132D",
"&  c #000E35",
"*  c #001236",
"=  c #01143D",
"-  c #2A2A2A",
";  c #3D3D3E",
":  c #001545",
">  c #011946",
",  c #001D55",
"<  c #06224E",
"1  c #06235A",
"2  c #06296A",
"3  c #0A2E6E",
"4  c #0E3167",
"5  c #0A3275",
"6  c #4E4E4F",
"7  c #555556",
"8  c #5A5A5D",
"9  c #606060",
"0  c #6B6B6E",
"q  c #707072",
"w  c #78787B",
"e  c #00328D",
"r  c #0C3C8A",
"t  c #003990",
"y  c #0D3B91",
"u  c #10419C",
"i  c #124295",
"p  c #1C5994",
"a  c #244B8B",
"s  c #2A5D8A",
"d  c #3E6386",
"f  c #0F46A7",
"g  c #084AA6",
"h  c #004AA9",
"j  c #0949AE",
"k  c #1247A4",
"l  c #1249A2",
"z  c #1854A3",
"x  c #1750AC",
"c  c #0657B8",
"v  c #1652B4",
"b  c #1059BF",
"n  c #1859BD",
"m  c #2C5FB1",
"M  c #235AB5",
"N  c #1B60AA",
"B  c #1C60B8",
"V  c #3F6EA9",
"C  c #326BAE",
"Z  c #3572AF",
"A  c #2573BF",
"S  c #3572B7",
"D  c #516988",
"F  c #5F758A",
"G  c #537099",
"H  c #7E7D83",
"J  c #6B7D9E",
"K  c #5378A7",
"L  c #0E5DC4",
"P  c #105CCF",
"I  c #1C5CC5",
"U  c #1764C2",
"Y  c #1668C6",
"T  c #1D6AC3",
"R  c #1A6DCA",
"E  c #1E62D8",
"W  c #1975DD",
"Q  c #216CC7",
"!  c #2366C5",
"~  c #2778CF",
"^  c #3F77C3",
"/  c #3979C0",
"(  c #3278CD",
")  c #246BD3",
"_  c #2968D3",
"`  c #247CD3",
"'  c #247BD9",
"]  c #3471D2",
"[  c #3A7BD4",
"{  c #3A79D9",
"}  c #1057F4",
"|  c #185EF7",
" . c #165BF5",
".. c #1664F6",
"X. c #1A67F6",
"o. c #1C6CF7",
"O. c #1762F9",
"+. c #1D6DFA",
"@. c #1E75F9",
"#. c #2169E8",
"$. c #2773E4",
"%. c #2269F5",
"&. c #2067FA",
"*. c #246EF8",
"=. c #2175FA",
"-. c #247CFB",
";. c #2B7FFF",
":. c #2D7EF2",
">. c #317EFD",
",. c #6884AA",
"<. c #7987A6",
"1. c #7C93AF",
"2. c #3C86D8",
"3. c #2683EA",
"4. c #3A8CE8",
"5. c #2782FB",
"6. c #2B85FC",
"7. c #2B8CFE",
"8. c #2488F4",
"9. c #3987FA",
"0. c #2F92FE",
"q. c #2F9BFF",
"w. c #3295FE",
"e. c #359AFF",
"r. c #3B9DFE",
"t. c #3DA0FF",
"y. c #4487CF",
"u. c #4A89CC",
"i. c #478AD3",
"p. c #5886D7",
"a. c #558FDC",
"s. c #5B8ED1",
"d. c #4D90D5",
"f. c #4B91DB",
"g. c #5895D5",
"h. c #5493DD",
"j. c #5499DE",
"k. c #5C9ADC",
"l. c #66A0DF",
"z. c #6EA3DD",
"x. c #76A5DF",
"c. c #7DAADE",
"v. c #4389E1",
"b. c #4597E9",
"n. c #469AED",
"m. c #4A9EEE",
"M. c #569EE6",
"N. c #599EE5",
"B. c #539EEB",
"V. c #4686F8",
"C. c #499EF2",
"Z. c #429CF5",
"A. c #5CA3EB",
"S. c #49A0F6",
"D. c #42A1FD",
"F. c #64A4E4",
"G. c #61A6EA",
"H. c #6BADEE",
"J. c #78ABE1",
"K. c #77AEE9",
"L. c #7FA8EA",
"P. c #72A6E5",
"I. c #7AB0E9",
"U. c #6AAEF3",
"Y. c #62AFF8",
"T. c #68A8F7",
"R. c #6FB0F2",
"E. c #63B7FF",
"W. c #6AB2FD",
"Q. c #64B9FF",
"!. c #6EB9FF",
"~. c #76B6F5",
"^. c #75BCFF",
"/. c #7CBDFE",
"(. c #7CC2FF",
"). c #858587",
"_. c #8B8B8D",
"`. c #929295",
"'. c #98999D",
"]. c #8992AC",
"[. c #9F9FA0",
"{. c #99A3B7",
"}. c #A3A3A8",
"|. c #AFAFB4",
" X c #B2B1B7",
".X c #B7B7BA",
"XX c #BFB9BA",
"oX c #C0BCB8",
"OX c #97B2CE",
"+X c #B5B6C1",
"@X c #88B7ED",
"#X c #8EBCEE",
"$X c #88B3E3",
"%X c #94B9E6",
"&X c #8CB8F1",
"*X c #81BDFF",
"=X c #89B8FC",
"-X c #9EC0E6",
";X c #85C2FF",
":X c #8CC5FF",
">X c #8CCAFF",
",X c #93C3F1",
"<X c #96C3FC",
"1X c #9FC6FF",
"2X c #93C9FF",
"3X c #9CCDFF",
"4X c #ABCBEC",
"5X c #B1CEEB",
"6X c #B5D1EE",
"7X c #A1C7F5",
"8X c #A5CEF4",
"9X c #ADCFF0",
"0X c #A0CBFF",
"qX c #AAD0F5",
"wX c #A4D2FF",
"eX c #ACD5FE",
"rX c #ABD9FF",
"tX c #BDD8F1",
"yX c #B2D5FD",
"uX c #B4DAFF",
"iX c #BCDCFE",
"pX c #B7D6F4",
"aX c #BFE1FF",
"sX c #C3C3C3",
"dX c #C4C4CB",
"fX c #C9C7CD",
"gX c #CBCBCC",
"hX c #D1D1D6",
"jX c #DAD5D9",
"kX c #D8D8DD",
"lX c #C6D8ED",
"zX c #C2DDFF",
"xX c #C2DBF3",
"cX c #E3DFE1",
"vX c #DFE4EC",
"bX c #CFE1F1",
"nX c #C4E2FF",
"mX c #CBE4FF",
"MX c #CEE9FF",
"NX c #D2E5FD",
"BX c #D4EBFE",
"VX c #DBECFF",
"CX c #DAE6F3",
"ZX c #E6E6E7",
"AX c #E5E3EE",
"SX c #EAE7E8",
"DX c #ECECEE",
"FX c #E7E7F1",
"GX c #ECEEF3",
"HX c #E3EEFF",
"JX c #E4F3FF",
"KX c #EDF4FB",
"LX c #F1F1F4",
"PX c #F6F6F8",
"IX c #FEFEFE",
"UX c None",
/* pixels */
"UXUXUXUXUXUXUXUXUXUXUXUXUXUXUXUXUXUXUXUXUXUXUXUXUXUXUXUXUXUXUXUX",
"UXUXUXUXUXUXUXUXUXUXUXUXUXUX[.).7 UXUXUXUXUXUXUXUXUXUXUXUXUXUXUX",
"UXUXUXUXUXUXUXUXUXUXUXUXUX'.IXIXZXsX`.7 UXUXUXUXUXUXUXUXUXUXUXUX",
"UXUXUXUXUXUXUXUXUXUXUXUXUXgXIXIXIXIXIXIXhX}.w UXUXUXUXUXUXUXUXUX",
"UXUXUXUXUXUXUXUXUXUXUXUX9 LXIXIXIXIXIXIXIXIXIXkX.X_.6 UXUXUXUXUX",
"UXUXUXUXUXUXUXUXUXUXUXUX`.IXIXIXIXIXIXIXIXIXIXIXIXIXDXdX`.0 UXUX",
"UXUXUXUXUXUXUXUXUXUXUXUXsXIXIXIXIXIXIXIXIXIXIXIXIXIXIXIXIXLX|.UX",
"UXUXUXUXUXUXUXUXUXUXUXUXDXIXIXIXIXIXIXIXIXIXIXIXIXIXIXIXIXIXfX@ ",
"UXUXUXUXUXUXUXUXUXUXUX_.IXIXIXIXIXIXIXIXIXIXIXLXKXIXIXPXPXIX`.  ",
"UXUXUXc U ~ R UXUXUXUXoXIXIXPXGXvXlX5X-X$Xx.l.f.i.vXIXPXIXGX8 UX",
"UXf.,XwXiXBXeXY UXUXUXOX%Xc.z.g.h.k.F.I.,X8XiXMXu.{.LXLXPXhX- UX",
"R rXwX2X*X/.*X4.T 2.g.I.#XqXiXmXBXBXBXMXmXaXuXrXd.1.SXGXLX}.X UX",
"Y W.*X=X<X0XyXmXBXVXbXJXJXVXBXMXMXnXaXiXiXuXeXrXh.,.ZXFXFXq UXUX",
"c pXKXHXVXBXmXmXMXtXxXMXMXMXMXnXnXnXaXiXuXeXrXwXF.K jXFXkX; UXUX",
"h 8XVXzXmXmXmXmXnX6XbXMXmXmXnXnXnXaXiXuXrXeXwX2X~.V fXFX X# UXUX",
"UX@XHXNXNXzXzXnXiX6XnXMXnXnXnXnXaXiXuXuXrXwX3X2X;XC +XAXH . UXUX",
"UXP.HXmXmXnXiXaXpXpXmXnXnXnXnXiXuXuXuXeXwX3X2X2X;XS {.jXD L j UX",
"UXa.HXzXzXiXiXiX9XiXMXnXnXaXiXuXuXrXrXwX3X3X2X:X>XS ].XXZ e.5 UX",
"UX( NXzXiXiXuXyX4XnXMXiXiXrXrX8X0X3X3X3X2X2X:X;X>Xy.<.`.A 3.* UX",
"UXB zXiXiXyXyXeX5XuX3X:X:X:X:X:X2X2X2X:X2X:X;X;X(.A.J F ` U . UX",
"UXf yXiXyXyXyX=XA.R.~./.;X;X:X:X:X>X:X:X:X;X*X*X(.R.G d ` i UXUX",
"UXt 7XiXeXeXT.7.7.e.n.A.H.~./.;X:X;X;X;X;X/.^.^.(.v.a s ' < UXUX",
"UXUX&XzXeXT.@.5.7.0.e.r.r.C.A.G.U.~.^././.^.^.^.m._ l p Q + UXUX",
"UXUXJ.zX=X@.@.8.6.0.0.e.r.t.r.S.S.B.M.A.Y.W.!.Y.] #Xv N z UXUXUX",
"UXUXs.mXV...=.-.5.6.7.w.e.e.r.r.t.D.Z.Z.b.b.m.) L.(.n Q 4 UXUXUX",
"UXUX^ yX%.O.o.=.-.5.6.7.0.0.e.e.r.r.r.r.r.t.W p.>XQ.[ L % UXUXUX",
"UXUXm 7X . .o.o.=.-.-.5.6.7.0.0.0.w.w.w.q.8.{ 0XE.>Xh.e UXUXUXUX",
"UXUXy T.%.} O.o.o.=.=.-.5.7.7.7.0.w.w.e.w.P ] [ ! M u = UXUXUXUX",
"UXUXUXf 9.| } O.+.*.-.-.6.6.:.$.) I x i 5 , : & $ o UXUXUXUXUXUX",
"UXUXUXUXv >.*.#._ I I f r 3 1 = $ O o UXUXUXUXUXUXUXUXUXUXUXUXUX",
"UXUXUXUXUX2 1 > * $ o UXUXUXUXUXUXUXUXUXUXUXUXUXUXUXUXUXUXUXUXUX",
"UXUXUXUXUXUXUXUXUXUXUXUXUXUXUXUXUXUXUXUXUXUXUXUXUXUXUXUXUXUXUXUX"
};
